<svg xmlns="http://www.w3.org/2000/svg" viewBox="0 0 1150.48 423"><defs><style>.cls-1{fill:#ffb743;}</style></defs><g id="Layer_2" data-name="Layer 2"><g id="Layer_1-2" data-name="Layer 1"><path class="cls-1" d="M211.5,0A2.5,2.5,0,0,0,209,2.5V195.71L149.29,12a2.5,2.5,0,1,0-4.75,1.54l59.7,183.76L90.68,41a2.5,2.5,0,1,0-4.05,2.93L200.2,200.2,43.88,86.63A2.5,2.5,0,1,0,41,90.68L197.26,204.24,13.5,144.54A2.5,2.5,0,1,0,12,149.29L195.71,209H2.5a2.5,2.5,0,0,0,0,5H195.71L12,273.71a2.49,2.49,0,0,0-1.61,3.15,2.52,2.52,0,0,0,2.38,1.73,2.27,2.27,0,0,0,.77-.13l183.76-59.7L41,332.32a2.5,2.5,0,0,0,1.47,4.53,2.48,2.48,0,0,0,1.46-.48L200.2,222.8,86.63,379.12a2.5,2.5,0,0,0,4.05,2.93L204.24,225.74,144.54,409.5a2.5,2.5,0,0,0,1.6,3.15,2.64,2.64,0,0,0,.78.12,2.49,2.49,0,0,0,2.37-1.73L209,227.29V420.5a2.5,2.5,0,0,0,5,0V2.5A2.5,2.5,0,0,0,211.5,0Z"/><path class="cls-1" d="M359,118.57v15.9h-75.5q-3.93,0-3.93,2.48v5.3q0,2.48,3.93,2.48H340.6q20.52,0,20.52,16.33v9.32q0,16.59-20.6,16.58H265v-15.9h75.49c2.56,0,3.85-.8,3.85-2.39v-5.56c0-1.65-1.29-2.48-3.85-2.48H283.41q-20.61,0-20.61-14.62V135.24q0-16.67,20.69-16.67Z"/><path class="cls-1" d="M450,171.06q3.84,0,3.84-2.39v-50.1h16.76v51.81Q470.64,187,450,187H390q-20.61,0-20.6-16.75V118.57h16.75V168.5q0,2.56,3.93,2.56Z"/><path class="cls-1" d="M506,139.6a16,16,0,0,0-4.4-3.63,10.6,10.6,0,0,0-5.34-1.5h-.86V187H479.19V118.57h17.1a26.65,26.65,0,0,1,11.5,2.22,28.84,28.84,0,0,1,8.93,7l33.09,38.13a17.8,17.8,0,0,0,4.36,3.59,10.12,10.12,0,0,0,5.3,1.54h.85V118.57h16.33V187H559.47a28.24,28.24,0,0,1-12-2.3,26.67,26.67,0,0,1-9.11-7.36Z"/><path class="cls-1" d="M585.2,118.57h79.94q25.73,0,25.73,21.8v24.88q0,21.72-25.73,21.71H585.2ZM602,171.06h63.19q9,0,9-5.81V140.37q0-5.9-9-5.9H602Z"/><path class="cls-1" d="M773,173.54H717.54L710,187H690.7l35.82-62.58a18,18,0,0,1,1.58-2.52,7.64,7.64,0,0,1,1.93-1.79,8.54,8.54,0,0,1,2.65-1.12,16.51,16.51,0,0,1,3.84-.38h17.27q7.1,0,10.43,5.73L800,187H780.72Zm-47.36-15h39.15l-11.88-20.86a6.44,6.44,0,0,0-2.1-2.43,4.32,4.32,0,0,0-2.35-.73h-6.58c-1.83,0-3.33,1.08-4.53,3.25Z"/><path class="cls-1" d="M845,118.57h19.23l-36.33,45.22V187H811.16V164.14l-37-45.57h19.32L819,151.14Z"/><path class="cls-1" d="M305.81,270.41q1.79,3.24,4.53,3.24H315a4.41,4.41,0,0,0,2.35-.72,6.55,6.55,0,0,0,2.09-2.44l28.21-49.33h19.24l-35.74,62.67q-3.33,5.73-10.43,5.73H304.53a16,16,0,0,1-3.85-.39,8.78,8.78,0,0,1-2.65-1.11,7.67,7.67,0,0,1-1.93-1.8,19,19,0,0,1-1.58-2.52L258.7,221.16H278Z"/><path class="cls-1" d="M371.12,221.16h16.76v68.4H371.12Z"/><path class="cls-1" d="M396.35,221.16h82.37q19.75,0,19.76,16.7V244a11.91,11.91,0,0,1-5.82,10.44q6.63,2.82,6.62,9.4v9q0,16.74-20.54,16.74H396.35Zm16.75,15.9V248h66.09q3.33,0,3.33-2.76v-5.52q0-2.67-3.84-2.67Zm0,25.14v11.45h65.58c2.56,0,3.84-1,3.84-3v-6.24c0-1.48-1.14-2.22-3.41-2.22Z"/><path class="cls-1" d="M507.74,221.16h82.33q19.75,0,19.75,16.67V244q0,17.36-19.75,17.36h-5.72l28.29,28.21H589.56L563,262.2H524.5v27.36H507.74Zm16.76,15.9V248h66.09q3.33,0,3.33-2.76v-5.52q0-2.67-3.84-2.67Z"/><path class="cls-1" d="M695,276.13H639.49L632,289.56H612.64L648.47,227a18.27,18.27,0,0,1,1.58-2.52,7.6,7.6,0,0,1,1.92-1.79,8.3,8.3,0,0,1,2.65-1.11,16,16,0,0,1,3.85-.39h17.27q7.1,0,10.43,5.73l35.73,62.67H702.67Zm-47.36-15h39.16l-11.89-20.86a6.47,6.47,0,0,0-2.09-2.44,4.43,4.43,0,0,0-2.35-.73h-6.59c-1.82,0-3.33,1.09-4.53,3.25Z"/><path class="cls-1" d="M703.87,221.16h95.92v15.9H760.55v52.5H743.79v-52.5H703.87Z"/><path class="cls-1" d="M808.25,221.16H825v68.4H808.25Z"/><path class="cls-1" d="M859.21,289.56q-25.74,0-25.74-21.72V243q0-21.79,25.74-21.8H912q25.74,0,25.74,21.8v24.88q0,21.72-25.74,21.72Zm0-52.5q-9,0-9,5.9v24.88q0,5.82,9,5.81H912q9,0,9-5.81V243q0-5.9-9-5.9Z"/><path class="cls-1" d="M973.17,242.19a16.52,16.52,0,0,0-4.4-3.63,10.6,10.6,0,0,0-5.35-1.5h-.85v52.5H946.32v-68.4h17.1a26.65,26.65,0,0,1,11.5,2.22,28.91,28.91,0,0,1,8.94,7l33.08,38.13a18.26,18.26,0,0,0,4.36,3.6,10.22,10.22,0,0,0,5.3,1.53h.86V221.16h16.33v68.4H1026.6a28.12,28.12,0,0,1-12-2.31,26.64,26.64,0,0,1-9.1-7.36Z"/><path class="cls-1" d="M1148.34,221.16v15.9h-75.49q-3.93,0-3.93,2.48v5.3c0,1.66,1.31,2.48,3.93,2.48H1130q20.52,0,20.52,16.33V273q0,16.59-20.6,16.59h-75.49V273.65h75.49c2.56,0,3.85-.79,3.85-2.39V265.7c0-1.65-1.29-2.48-3.85-2.48h-57.11q-20.61,0-20.61-14.62V237.83q0-16.67,20.69-16.67Z"/></g></g></svg>